<?xml version="1.0" encoding="UTF-8" standalone="no"?>
<!DOCTYPE svg PUBLIC "-//W3C//DTD SVG 1.1//EN" "http://www.w3.org/Graphics/SVG/1.1/DTD/svg11.dtd">
<svg width="100%" height="100%" viewBox="0 0 456 456" version="1.1" xmlns="http://www.w3.org/2000/svg" xmlns:xlink="http://www.w3.org/1999/xlink" xml:space="preserve" xmlns:serif="http://www.serif.com/" style="fill-rule:evenodd;clip-rule:evenodd;stroke-linejoin:round;stroke-miterlimit:2;">
    <g transform="matrix(0.715559,0.0680681,-0.0680681,0.715559,-57.7381,-532.372)">
        <g transform="matrix(-2.61493,3.20237e-16,-3.20237e-16,-2.61493,1267.27,1293.79)">
            <path d="M201.62,121.275L240.888,116.949C241.27,106.144 246.417,93.188 252.512,83.239L221.677,64.166C214.294,74.841 202.026,103.851 201.62,121.275Z" style="fill:rgb(255,185,0);fill-rule:nonzero;"/>
        </g>
        <g transform="matrix(-2.61493,3.20237e-16,-3.20237e-16,-2.61493,1266.14,1257.59)">
            <path d="M243.089,139.504C238.309,130.506 237.982,118.181 238.856,108.411L200.551,112.964C200.104,122.621 200.396,132.933 202.2,142.679C203.549,149.965 205.743,156.934 209.105,163.076L243.089,139.504Z" style="fill:rgb(16,124,16);fill-rule:nonzero;"/>
        </g>
        <g transform="matrix(-2.61493,3.20237e-16,-3.20237e-16,-2.61493,1204.49,1299.55)">
            <path d="M296.508,0.906C279.083,1.311 262.443,7.529 248.085,15.388L261.139,51.172C270.137,46.392 279.656,41.869 290.462,41.486L296.508,0.906Z" style="fill:rgb(232,17,35);fill-rule:nonzero;"/>
        </g>
        <g transform="matrix(-2.61493,3.20237e-16,-3.20237e-16,-2.61493,1267.27,1293.79)">
            <path d="M263.692,174.54C254.825,168.975 250.684,165.028 245.281,156.147L211.36,180.735C220.136,195.106 236.59,207.409 242.259,208.994L263.692,174.54Z" style="fill:rgb(154,0,137);fill-rule:nonzero;"/>
        </g>
        <g transform="matrix(-2.61493,3.20237e-16,-3.20237e-16,-2.61493,1267.27,1293.79)">
            <path d="M286.34,212.151L291.523,179.011C288.339,178.812 275.609,181.247 266.611,176.466L245.927,210.349C262.617,216.661 284.415,213.082 286.34,212.151Z" style="fill:rgb(0,120,215);fill-rule:nonzero;"/>
        </g>
        <g transform="matrix(-2.61493,3.20237e-16,-3.20237e-16,-2.61493,1267.27,1293.79)">
            <path d="M325.321,-0.742L318.717,39.191C355.848,40.509 364.548,73.029 361.184,101.408C357.227,134.78 326.426,172.954 296.44,177.56L291,211.192C343.255,195.208 378.934,143.7 387.124,99.284C397.554,42.715 367.542,0.359 325.321,-0.742Z" style="fill:rgb(0,120,215);fill-rule:nonzero;"/>
        </g>
        <g transform="matrix(-2.61493,3.20237e-16,-3.20237e-16,-2.61493,1240.66,1272.98)">
            <path d="M245.047,70.522C246.534,68.155 248.834,65.159 250.586,62.996C255.397,57.059 263.968,48.361 270.467,44.281L257.304,8.254C242.934,17.029 223.319,37.127 214.543,51.497L245.047,70.522Z" style="fill:rgb(247,99,12);fill-rule:nonzero;"/>
        </g>
    </g>
</svg>
