<?xml version="1.0" encoding="UTF-8" standalone="no"?><!DOCTYPE svg PUBLIC "-//W3C//DTD SVG 1.1//EN" "http://www.w3.org/Graphics/SVG/1.1/DTD/svg11.dtd"><svg width="100%" height="100%" viewBox="0 0 10031 2156" version="1.1" xmlns="http://www.w3.org/2000/svg" xmlns:xlink="http://www.w3.org/1999/xlink" xml:space="preserve" xmlns:serif="http://www.serif.com/" style="fill-rule:evenodd;clip-rule:evenodd;stroke-linejoin:round;stroke-miterlimit:2;"><rect id="Artboard1" x="0" y="0" width="10030.2" height="2155.94" style="fill:none;"/><g id="svg3145"><g><path d="M773.734,85.497c225.74,-7.225 475.087,57.627 688.883,181.101c214.468,123.796 411.239,318.666 535.356,547.487c99.127,183.724 145.833,372.724 148.797,539.735c-13.095,158.109 -88.79,275.001 -201.675,320.742c-96.299,39.033 -222.064,32.207 -369.301,-28.043c-120.013,-49.378 -238.397,-135.497 -344.3,-247.719c74.662,9.615 145.452,7.967 209.71,-6.016c45.282,-10.111 87.084,-26.025 124.781,-47.74c122.547,-70.644 188.589,-197.814 182.485,-353.787c-6.835,-172.335 -89.668,-358.624 -234.691,-512.043c-134.892,-142.81 -315.906,-248.411 -505.305,-299.397c-166.202,-44.796 -328.387,-50.558 -471.255,-28.024c-66.062,10.482 -129.354,26.873 -188.356,48.851c112.914,-67.446 258.522,-109.755 424.871,-115.147" style="fill:#3678bd;fill-rule:nonzero;"/><path d="M574.819,197.151c130.241,-19.707 278.121,-13.047 429.385,29.379c113.333,31.758 221.479,84.519 315.331,153.857c-58.739,-16.664 -115.635,-24.991 -168.65,-25.43c-185.099,-1.609 -332.15,96.933 -364.465,272.515c-34.878,190.774 32.237,425.319 186.474,657.943c156.861,237.364 365.84,416.515 581.049,497.944c167.012,62.6 309.129,63.506 415.998,12.49c40.963,-19.482 77.041,-47.291 107.307,-81.575c-61.8,135.117 -167.548,246.227 -311.976,308.534c-123.435,53.103 -265.036,68.353 -415.1,49.242c-163.453,-20.75 -334.004,-81.439 -499.504,-176.177c-344.007,-197.219 -629.237,-512.823 -747.738,-868.853c-76.524,-230.148 -62.132,-435.811 19.219,-590.79c103.338,-125.746 268.263,-210.861 452.67,-239.079" style="fill:#00b2e7;fill-rule:nonzero;"/><g opacity="0.95"><clipPath id="_clip1"><path d="M2244.37,1664.11l429.843,0l0,-1296.26l-429.843,-0l-0,1296.26Z" clip-rule="nonzero"/></clipPath><g clip-path="url(#_clip1)"><path d="M2674.22,367.855l-117.146,1296.25l-312.697,-0l117.145,-1296.25l312.698,0Z" style="fill:#3678bd;fill-rule:nonzero;"/></g></g><g opacity="0.95"><path d="M2740.88,912.999l449.248,0l-21.481,237.705l-449.248,-0l21.481,-237.705Z" style="fill:#3678bd;fill-rule:nonzero;"/></g><g opacity="0.95"><path d="M4267.14,662.826l-273.782,91.229c-23.724,-99.566 -81.789,-149.353 -174.207,-149.353c-95.967,-0 -146.798,31.534 -152.493,94.631c-2.281,25.196 4.408,46.658 20.058,64.394c15.65,17.727 56.466,33.826 122.46,48.286c119.086,26.171 206.346,53.035 261.789,80.581c55.442,27.546 100.413,72.233 134.921,134.044c34.508,61.82 48.335,130.68 41.48,206.589c-10.745,118.843 -62.678,221.606 -155.788,308.291c-93.12,86.674 -222.64,130.017 -388.559,130.017c-124.518,-0 -228.12,-30.657 -310.796,-91.96c-82.687,-61.303 -132.114,-157.972 -148.3,-289.988l293.713,-66.89c18.634,117.399 88.274,176.099 208.92,176.099c58.212,-0 101.798,-11.35 130.758,-34.06c28.97,-22.709 44.824,-49.349 47.594,-79.908c2.74,-30.373 -7.362,-54.428 -30.316,-72.155c-22.963,-17.727 -72.146,-35.132 -147.578,-52.225c-150.181,-34.05 -255.958,-81.293 -317.339,-141.718c-61.381,-60.416 -86.821,-148.768 -76.309,-265.026c10.56,-116.815 59.314,-215.541 146.261,-296.19c86.948,-80.649 198.097,-120.968 333.458,-120.968c239.498,-0 384.19,108.76 434.055,326.28" style="fill:#3678bd;fill-rule:nonzero;"/></g><g opacity="0.95"><path d="M5251.02,671.372l-355.699,926.636c-39.618,101.193 -72.76,175.299 -99.409,222.298c-26.649,46.999 -62.951,84.988 -108.907,113.958c-45.955,28.959 -107.015,43.449 -183.188,43.449c-38.086,0 -85.056,-4.632 -140.889,-13.875l22.242,-248.382c58.553,8.707 106.4,13.056 143.541,13.056c44.249,0 74.272,-8.493 90.049,-25.478c15.786,-16.986 28.94,-40.924 39.49,-71.815l-229.426,-959.847l304.039,-0l101.867,559.266l195.776,-559.266l220.514,-0Z" style="fill:#3678bd;fill-rule:nonzero;"/></g><g opacity="0.95"><clipPath id="_clip2"><rect x="5323.99" y="646.02" width="852.823" height="1024.05" clip-rule="nonzero"/></clipPath><g clip-path="url(#_clip2)"><path d="M6116.94,1670.07l-294.629,0l48.958,-561.235c5.568,-63.907 7.255,-106.722 5.032,-128.447c-2.204,-21.715 -9.917,-39.432 -23.129,-53.142c-13.212,-13.7 -30.676,-20.555 -52.41,-20.555c-77.08,0 -121.505,67.388 -133.255,202.144l-48.949,561.235l-294.561,0l87.552,-1003.94l276.562,-0l-14.246,163.345c23.343,-73.94 56.905,-122.996 100.686,-147.178c43.772,-24.182 89.591,-36.263 137.457,-36.273c87.611,0.01 156.227,26.59 205.878,79.761c49.632,53.161 67.914,154.745 54.839,304.732l-55.785,639.553Z" style="fill:#3678bd;fill-rule:nonzero;"/></g></g><g opacity="0.95"><clipPath id="_clip3"><rect x="6324.38" y="663.961" width="870.735" height="1007.49" clip-rule="nonzero"/></clipPath><g clip-path="url(#_clip3)"><path d="M6804.79,881.233c77.811,0 115.741,51.621 113.713,154.404l-269.94,-0c19.54,-102.783 71.658,-154.404 156.227,-154.404m10.17,-217.267c-129.549,0 -239.762,47.399 -330.62,142.42c-90.858,95.031 -143.171,218.73 -156.958,371.319c-9.322,103.134 3.071,191.662 37.062,265.592c33.992,73.921 81.01,130.592 140.967,169.664c59.948,39.071 134.883,58.495 225.253,58.495c196.01,-0 339.639,-106.284 430.546,-318.997l-245.973,-59.217l-3.998,-0.37c-26.142,97.732 -76.242,146.418 -150.777,146.418c-40.456,-0 -74.154,-15.065 -100.637,-45.049c-26.483,-29.974 -36.81,-75.452 -31.242,-136.979c0.956,-11.945 1.707,-20.311 2.175,-24.699l282.304,0l0,-1.453l276.844,0c18,-201.392 -10.618,-346.24 -86.109,-434.533c-75.676,-88.498 -171.809,-132.611 -288.837,-132.611" style="fill:#3678bd;fill-rule:nonzero;"/></g></g><g opacity="0.95"><path d="M7342.14,1414.88l-22.153,255.187l287.014,0l15.991,-184.387l-280.852,-70.8Zm322.995,-573.97l15.63,-180.604l-273.226,-0l-49.407,570.947l287.014,-0c7.284,-65.057 20.389,-116.824 38.886,-155.233c45.819,-84.568 49.046,-172.228 302.518,-206.667l21.052,-231.484c-193.612,0 -311.255,55.268 -342.467,203.041" style="fill:#3678bd;fill-rule:nonzero;"/></g><g opacity="0.95"><path d="M8256.49,1645.73c-5.042,0 -14.042,5.607 -27.02,16.82c-12.968,11.204 -20.155,24.543 -21.549,40.018c-2.877,31.826 17.103,52.312 59.948,61.488c42.854,9.166 97.517,13.758 164.008,13.758c85.485,0 143.707,-5.996 174.646,-17.99c30.959,-11.993 47.486,-29.545 49.573,-52.664c1.414,-15.679 -9.722,-28.911 -33.406,-39.705c-23.695,-10.804 -97.761,-16.196 -222.201,-16.196l-51.63,0.936c-33.64,0 -55.95,-0.956 -66.949,-2.876c-11.214,-2.389 -19.687,-3.589 -25.42,-3.589m242.921,-795.741c-38.526,-0 -69.416,10.891 -92.681,32.675c-23.256,21.793 -36.537,51.045 -39.862,87.757c-7.41,82.14 29.692,123.201 111.345,123.201c40.309,-0 72.74,-11.877 97.293,-35.649c24.543,-23.763 38.389,-52.947 41.519,-87.552c2.896,-32.168 -5.149,-60.28 -24.153,-84.345c-18.995,-24.065 -50.158,-36.087 -93.461,-36.087m355.503,-60.367c43.869,42.991 59.47,112.28 53.113,182.622c-8.513,94.163 -51.543,168.942 -129.11,224.336c-77.558,55.385 -183.11,83.077 -316.647,83.077c-47.506,-0 -90.507,-4.603 -129.003,-13.817c-20.038,12.812 -31.046,30.218 -33.035,52.206c-2.155,23.899 6.25,40.036 25.205,48.393c18.966,8.376 73.979,14.948 165.062,19.726c134.102,7.478 227.154,16.712 279.164,27.692c52.011,10.969 94.68,38.116 128.018,81.429c33.328,43.322 47.097,97.03 41.295,161.151c-8.259,91.462 -54.058,168.327 -137.369,230.615c-83.321,62.288 -220.972,93.423 -412.965,93.423c-180.058,-0 -300.929,-21.891 -362.612,-65.682c-61.674,-43.781 -89.376,-100.403 -83.096,-169.839c8.327,-92.203 63.087,-149.791 164.261,-172.754c-70.742,-28.492 -102.558,-82.18 -95.43,-161.054c8.795,-97.215 72.926,-166.69 192.421,-208.433c-99.175,-37.189 -143.59,-113.089 -133.225,-227.71c8.386,-92.866 52.616,-167.937 132.689,-225.204c80.073,-57.276 184.826,-85.904 314.277,-85.904c80.912,0 150.533,13.515 208.843,40.554c64.404,32.899 72.399,38.593 128.144,85.173" style="fill:#3678bd;fill-rule:nonzero;"/></g><g opacity="0.95"><path d="M9947.33,665.416l-355.699,930.858c-39.627,101.662 -72.75,176.099 -99.409,223.322c-26.639,47.204 -62.951,85.368 -108.906,114.465c-45.956,29.096 -107.015,43.644 -183.188,43.644c-38.087,0 -85.056,-4.641 -140.889,-13.934l22.241,-249.503c58.554,8.737 106.401,13.105 143.542,13.115c44.258,0 74.271,-8.532 90.048,-25.596c15.777,-17.063 28.95,-41.109 39.491,-72.146l-229.426,-964.225l304.039,0l101.866,561.82l195.776,-561.82l220.514,0Z" style="fill:#3678bd;fill-rule:nonzero;"/></g></g></g></svg>