<?xml version="1.0" encoding="UTF-8" standalone="no"?><!DOCTYPE svg PUBLIC "-//W3C//DTD SVG 1.1//EN" "http://www.w3.org/Graphics/SVG/1.1/DTD/svg11.dtd"><svg width="600px" height="600px" version="1.1" xmlns="http://www.w3.org/2000/svg" xmlns:xlink="http://www.w3.org/1999/xlink" xml:space="preserve" xmlns:serif="http://www.serif.com/" style="fill-rule:evenodd;clip-rule:evenodd;stroke-linejoin:round;stroke-miterlimit:2;"><g transform="matrix(1.05589,0.100442,-0.100442,1.05589,-122.726,-821.014)"><g transform="matrix(-2.61493,3.20237e-16,-3.20237e-16,-2.61493,1267.27,1293.79)"><path d="M201.62,121.275l39.268,-4.326c0.382,-10.805 5.529,-23.761 11.624,-33.71l-30.835,-19.073c-7.383,10.675 -19.651,39.685 -20.057,57.109Z" style="fill:#00d766;fill-opacity:0.7;fill-rule:nonzero;"/></g><g transform="matrix(-2.61493,3.20237e-16,-3.20237e-16,-2.61493,1266.14,1257.59)"><path d="M243.089,139.504c-4.78,-8.998 -5.107,-21.323 -4.233,-31.093l-38.305,4.553c-0.447,9.657 -0.155,19.969 1.649,29.715c1.349,7.286 3.543,14.255 6.905,20.397l33.984,-23.572Z" style="fill:#00d766;fill-opacity:0.8;fill-rule:nonzero;"/></g><g transform="matrix(-2.61493,3.20237e-16,-3.20237e-16,-2.61493,1204.49,1299.55)"><path d="M296.508,0.906c-17.425,0.405 -34.065,6.623 -48.423,14.482l13.054,35.784c8.998,-4.78 18.517,-9.303 29.323,-9.686l6.046,-40.58Z" style="fill:#00d766;fill-opacity:0.6;fill-rule:nonzero;"/></g><g transform="matrix(-2.61493,3.20237e-16,-3.20237e-16,-2.61493,1267.27,1293.79)"><path d="M263.692,174.54c-8.867,-5.565 -13.008,-9.512 -18.411,-18.393l-33.921,24.588c8.776,14.371 25.23,26.674 30.899,28.259l21.433,-34.454Z" style="fill:#00d766;fill-opacity:0.9;fill-rule:nonzero;"/></g><g transform="matrix(-2.61493,3.20237e-16,-3.20237e-16,-2.61493,1267.27,1293.79)"><path d="M286.34,212.151l5.183,-33.14c-3.184,-0.199 -15.914,2.236 -24.912,-2.545l-20.684,33.883c16.69,6.312 38.488,2.733 40.413,1.802Z" style="fill:#00d766;fill-rule:nonzero;"/></g><g transform="matrix(-2.61493,3.20237e-16,-3.20237e-16,-2.61493,1267.27,1293.79)"><path d="M325.321,-0.742l-6.604,39.933c37.131,1.318 45.831,33.838 42.467,62.217c-3.957,33.372 -34.758,71.546 -64.744,76.152l-5.44,33.632c52.255,-15.984 87.934,-67.492 96.124,-111.908c10.43,-56.569 -19.582,-98.925 -61.803,-100.026Z" style="fill:#00d766;fill-rule:nonzero;"/></g><g transform="matrix(-2.61493,3.20237e-16,-3.20237e-16,-2.61493,1240.66,1272.98)"><path d="M245.047,70.522c1.487,-2.367 3.787,-5.363 5.539,-7.526c4.811,-5.937 13.382,-14.635 19.881,-18.715l-13.163,-36.027c-14.37,8.775 -33.985,28.873 -42.761,43.243l30.504,19.025Z" style="fill:#00d766;fill-opacity:0.7;fill-rule:nonzero;"/></g></g></svg>