<?xml version="1.0" encoding="UTF-8" standalone="no"?>
<!DOCTYPE svg PUBLIC "-//W3C//DTD SVG 1.1//EN" "http://www.w3.org/Graphics/SVG/1.1/DTD/svg11.dtd">
<svg width="100%" height="100%" viewBox="0 0 800 106" version="1.1" xmlns="http://www.w3.org/2000/svg" xmlns:xlink="http://www.w3.org/1999/xlink" xml:space="preserve" xmlns:serif="http://www.serif.com/" style="fill-rule:evenodd;clip-rule:evenodd;stroke-linejoin:round;stroke-miterlimit:2;">
    <g transform="matrix(1,0,0,1,-384.914,-485.808)">
        <g transform="matrix(1,0,0,1,720.064,287.953)">
            <g transform="matrix(0.26664,0,0,0.26664,-250.333,145.619)">
                <g transform="matrix(16.4684,0,-1.0847,17.6056,-19974.7,-9771.79)">
                    <g transform="matrix(12,0,0,12,1335.24,576.295)">
                    </g>
                    <text x="1299.05px" y="576.295px" style="font-family:'ErasITC-Light', 'Eras Light ITC', sans-serif;font-size:12px;fill:white;">Sample</text>
                </g>
                <g id="I-Synergy_Display.afdesign" transform="matrix(0.377939,0,0,0.377939,-204.714,309.286)">
                    <g transform="matrix(1,0,0,1,-300,-300)">
                        <g transform="matrix(1.05589,0.100442,-0.100442,1.05589,-122.726,-821.014)">
                            <g transform="matrix(-2.61493,3.20237e-16,-3.20237e-16,-2.61493,1267.27,1293.79)">
                                <path d="M201.62,121.275L240.888,116.949C241.27,106.144 246.417,93.188 252.512,83.239L221.677,64.166C214.294,74.841 202.026,103.851 201.62,121.275Z" style="fill:white;fill-opacity:0.7;fill-rule:nonzero;"/>
                            </g>
                            <g transform="matrix(-2.61493,3.20237e-16,-3.20237e-16,-2.61493,1266.14,1257.59)">
                                <path d="M243.089,139.504C238.309,130.506 237.982,118.181 238.856,108.411L200.551,112.964C200.104,122.621 200.396,132.933 202.2,142.679C203.549,149.965 205.743,156.934 209.105,163.076L243.089,139.504Z" style="fill:white;fill-opacity:0.8;fill-rule:nonzero;"/>
                            </g>
                            <g transform="matrix(-2.61493,3.20237e-16,-3.20237e-16,-2.61493,1204.49,1299.55)">
                                <path d="M296.508,0.906C279.083,1.311 262.443,7.529 248.085,15.388L261.139,51.172C270.137,46.392 279.656,41.869 290.462,41.486L296.508,0.906Z" style="fill:white;fill-opacity:0.6;fill-rule:nonzero;"/>
                            </g>
                            <g transform="matrix(-2.61493,3.20237e-16,-3.20237e-16,-2.61493,1267.27,1293.79)">
                                <path d="M263.692,174.54C254.825,168.975 250.684,165.028 245.281,156.147L211.36,180.735C220.136,195.106 236.59,207.409 242.259,208.994L263.692,174.54Z" style="fill:white;fill-opacity:0.9;fill-rule:nonzero;"/>
                            </g>
                            <g transform="matrix(-2.61493,3.20237e-16,-3.20237e-16,-2.61493,1267.27,1293.79)">
                                <path d="M286.34,212.151L291.523,179.011C288.339,178.812 275.609,181.247 266.611,176.466L245.927,210.349C262.617,216.661 284.415,213.082 286.34,212.151Z" style="fill:white;fill-rule:nonzero;"/>
                            </g>
                            <g transform="matrix(-2.61493,3.20237e-16,-3.20237e-16,-2.61493,1267.27,1293.79)">
                                <path d="M325.321,-0.742L318.717,39.191C355.848,40.509 364.548,73.029 361.184,101.408C357.227,134.78 326.426,172.954 296.44,177.56L291,211.192C343.255,195.208 378.934,143.7 387.124,99.284C397.554,42.715 367.542,0.359 325.321,-0.742Z" style="fill:white;fill-rule:nonzero;"/>
                            </g>
                            <g transform="matrix(-2.61493,3.20237e-16,-3.20237e-16,-2.61493,1240.66,1272.98)">
                                <path d="M245.047,70.522C246.534,68.155 248.834,65.159 250.586,62.996C255.397,57.059 263.968,48.361 270.467,44.281L257.304,8.254C242.934,17.029 223.319,37.127 214.543,51.497L245.047,70.522Z" style="fill:white;fill-opacity:0.7;fill-rule:nonzero;"/>
                            </g>
                        </g>
                    </g>
                </g>
                <g id="I-Synergy_Logo.afdesign" transform="matrix(0.312106,0,0,0.312106,338.938,318.924)">
                    <g transform="matrix(1,0,0,1,-1500,-300)">
                        <g transform="matrix(0.975507,0,0,0.975507,-426.64,-643.896)">
                            <g>
                                <g>
                                    <g transform="matrix(1.54384,0,0,1.54384,-300.453,13.1118)">
                                        <g>
                                            <path d="M681.812,428.497L681.812,428.5L653.697,739.597L578.649,739.597L606.764,428.497L681.812,428.497Z" style="fill:white;"/>
                                        </g>
                                    </g>
                                    <g transform="matrix(1.54384,0,0,1.54384,-300.453,13.1118)">
                                        <g>
                                            <path d="M697.81,559.332L805.63,559.332L800.474,616.381L692.655,616.381L697.81,559.332Z" style="fill:white;"/>
                                        </g>
                                    </g>
                                    <g transform="matrix(1.54384,0,0,1.54384,-327.398,13.1118)">
                                        <g>
                                            <path d="M1064.11,499.29L998.406,521.185C992.712,497.289 978.776,485.34 956.596,485.34C933.564,485.34 921.365,492.908 919.998,508.052C919.45,514.099 921.056,519.25 924.812,523.506C928.568,527.761 938.364,531.625 954.202,535.095C982.783,541.376 1003.73,547.823 1017.03,554.434C1030.34,561.045 1041.13,571.77 1049.41,586.605C1057.69,601.442 1061.01,617.968 1059.37,636.186C1056.79,664.709 1044.33,689.372 1021.98,710.176C999.63,730.978 968.545,741.38 928.724,741.38C898.84,741.38 873.976,734.023 854.133,719.31C834.288,704.597 822.426,681.397 818.541,649.713L889.033,633.659C893.505,661.835 910.218,675.923 939.173,675.923C953.144,675.923 963.605,673.199 970.555,667.749C977.508,662.298 981.313,655.905 981.978,648.571C982.635,641.281 980.211,635.508 974.702,631.253C969.191,626.999 957.387,622.822 939.283,618.719C903.24,610.547 877.853,599.209 863.122,584.707C848.39,570.207 842.285,549.003 844.808,521.101C847.342,493.065 859.043,469.371 879.91,450.015C900.778,430.659 927.454,420.983 959.94,420.983C1017.42,420.983 1052.15,447.085 1064.11,499.29" style="fill:white;"/>
                                        </g>
                                    </g>
                                    <g transform="matrix(1.54384,0,0,1.54384,-319.308,13.1118)">
                                        <g>
                                            <path d="M1301.11,499.546L1214.88,723.734C1205.37,748.02 1197.41,765.806 1191.02,777.085C1184.62,788.365 1175.91,797.482 1164.88,804.435C1153.85,811.385 1139.2,814.863 1120.91,814.863C1111.78,814.863 1100.5,813.751 1087.1,811.533L1093.09,750.844C1102.4,752.072 1112.32,753.654 1121.23,751.5C1131.56,749.004 1137.61,745.457 1141.39,741.38C1143.44,739.175 1146.93,732.262 1147.13,725.207C1147.31,719.219 1146.26,714.746 1145.37,709.726L1082.14,499.912L1144.21,499.912L1184.17,639.443L1231.81,499.912L1301.11,499.546Z" style="fill:white;"/>
                                        </g>
                                    </g>
                                    <g transform="matrix(1.54384,0,0,1.54384,-336.846,13.1118)">
                                        <g>
                                            <path d="M1458.89,495.257C1479.95,495.277 1496.39,501.656 1508.29,514.399C1520.2,527.158 1524.59,551.538 1521.45,587.535L1508.07,741.028L1437.36,741.028L1449.11,606.331C1450.44,590.993 1450.85,580.718 1450.31,575.504C1449.78,570.292 1447.93,566.04 1444.76,562.75C1441.59,559.462 1437.4,557.817 1432.18,557.817C1413.68,557.817 1403.02,573.99 1400.2,606.331L1388.45,741.028L1317.76,741.028L1338.77,500.082L1405.15,500.082L1401.73,539.285C1407.33,521.539 1415.38,509.766 1425.89,503.962C1436.37,498.173 1447.34,495.273 1458.88,495.257L1458.89,495.257Z" style="fill:white;"/>
                                        </g>
                                    </g>
                                    <g transform="matrix(1.54384,0,0,1.54384,-357.782,13.1118)">
                                        <g>
                                            <path d="M1655.32,741.36C1633.62,741.348 1615.67,736.686 1601.3,727.322C1586.91,717.945 1575.62,704.344 1567.47,686.603C1559.31,668.86 1556.34,647.613 1558.57,622.861C1561.88,586.24 1574.44,556.552 1596.24,533.745C1618.05,510.939 1644.5,499.564 1675.59,499.564C1703.68,499.564 1726.75,510.151 1744.91,531.39C1763.03,552.581 1769.9,587.344 1765.58,635.678L1699.13,635.678L1699.13,636.027L1631.38,636.027C1631.27,637.08 1631.09,639.088 1630.86,641.955C1629.52,656.721 1632,667.636 1638.36,674.83C1644.71,682.026 1652.8,685.641 1662.51,685.641C1680.4,685.641 1692.42,673.957 1698.7,650.501L1699.66,650.59L1758.69,664.802C1736.89,715.823 1702.44,741.331 1655.43,741.36L1655.32,741.36ZM1700.44,588.765C1700.91,564.071 1691.81,551.708 1673.15,551.708C1652.85,551.708 1640.35,564.097 1635.65,588.765L1700.44,588.765Z" style="fill:white;"/>
                                        </g>
                                    </g>
                                    <g transform="matrix(1.54384,0,0,1.54384,-370.756,13.1118)">
                                        <g>
                                            <path d="M1802.69,672.629L1869.52,687.831L1865.68,741.028L1796.8,741.028L1802.69,672.629ZM1879.63,542.03C1887.12,506.564 1915.36,493.3 1961.82,493.3L1956.77,548.856C1895.94,557.122 1895.16,578.16 1884.17,598.457C1879.73,607.675 1876.58,620.099 1874.84,635.712L1805.95,635.712L1817.81,498.685L1883.38,498.685L1879.63,542.03Z" style="fill:white;"/>
                                        </g>
                                    </g>
                                    <g transform="matrix(1.54384,0,0,1.54384,-373.198,13.1118)">
                                        <g>
                                            <path d="M2165.18,529.72C2175.71,540.038 2179.45,556.667 2177.93,573.549C2175.88,596.149 2165.55,614.096 2146.94,627.39C2128.32,640.682 2102.99,647.329 2070.94,647.329C2059.54,647.329 2049.22,646.224 2039.98,644.012C2035.17,647.088 2032.53,651.265 2032.05,656.542C2031.54,662.278 2033.55,666.151 2038.1,668.156C2042.65,670.166 2055.86,671.744 2077.72,672.89C2109.9,674.685 2132.24,676.902 2144.72,679.537C2157.2,682.169 2167.44,688.684 2175.44,699.079C2183.44,709.477 2186.74,722.367 2185.35,737.756C2183.37,759.707 2172.38,778.154 2152.38,793.103C2132.39,808.053 2099.35,815.525 2053.27,815.525C2010.06,815.525 1981.05,810.271 1966.25,799.761C1951.44,789.254 1944.8,775.664 1946.3,759C1948.3,736.871 1961.44,723.05 1985.73,717.539C1968.75,710.701 1961.11,697.816 1962.82,678.886C1964.93,655.554 1980.32,638.88 2009,628.862C1985.2,619.937 1974.54,601.721 1977.03,574.212C1979.04,551.924 1989.66,533.907 2008.88,520.163C2028.09,506.417 2053.23,499.546 2084.3,499.546C2103.72,499.546 2120.43,502.789 2134.42,509.279C2149.88,517.174 2151.8,518.541 2165.18,529.72ZM2021.56,735.186C2020.35,735.186 2018.19,736.532 2015.07,739.223C2011.96,741.912 2010.23,745.113 2009.9,748.827C2009.21,756.465 2014,761.382 2024.29,763.584C2034.57,765.784 2047.69,766.886 2063.65,766.886C2084.17,766.886 2098.14,765.447 2105.56,762.569C2112.99,759.69 2116.96,755.478 2117.46,749.929C2117.8,746.166 2115.13,742.991 2109.44,740.4C2103.76,737.807 2085.98,736.513 2056.12,736.513L2043.73,736.738C2035.65,736.738 2030.3,736.508 2027.66,736.047C2024.97,735.474 2022.93,735.186 2021.56,735.186ZM2079.86,544.208C2070.61,544.208 2063.2,546.822 2057.61,552.05C2052.03,557.28 2048.85,564.301 2048.05,573.112C2046.27,592.826 2055.17,602.68 2074.77,602.68C2084.44,602.68 2092.23,599.83 2098.12,594.124C2104.01,588.421 2107.33,581.417 2108.09,573.112C2108.78,565.392 2106.85,558.645 2102.29,552.869C2097.73,547.094 2090.25,544.208 2079.86,544.208Z" style="fill:white;"/>
                                        </g>
                                    </g>
                                    <g transform="matrix(1.54384,0,0,1.54384,1348.44,13.6768)">
                                        <g>
                                            <path d="M1301.11,499.546L1214.88,723.734C1205.37,748.02 1197.41,765.806 1191.02,777.085C1184.62,788.365 1175.91,797.482 1164.88,804.435C1153.85,811.385 1139.2,814.863 1120.91,814.863C1111.78,814.863 1100.5,813.751 1087.1,811.533L1093.09,750.844C1102.4,752.072 1112.32,753.654 1121.23,751.5C1131.56,749.004 1137.61,745.457 1141.39,741.38C1143.44,739.175 1146.93,732.262 1147.13,725.207C1147.31,719.219 1146.26,714.746 1145.37,709.726L1082.14,499.912L1144.21,499.912L1184.17,639.443L1231.81,499.912L1301.11,499.546Z" style="fill:white;"/>
                                        </g>
                                    </g>
                                </g>
                            </g>
                        </g>
                    </g>
                </g>
            </g>
        </g>
    </g>
</svg>
